<svg width="299.16984" height="556.66844" xmlns="http://www.w3.org/2000/svg">
 <title>problem solving</title>

 <g>
  <title>background</title>
  <rect fill="none" id="canvas_background" height="558.66844" width="301.16984" y="-1" x="-1"/>
 </g>
 <g>
  <title>Layer 1</title>
  <ellipse id="svg_3" fill="#f2f2f2" transform="rotate(-59.76945877075195 -113.36920928955105,1116.0292968749998) " ry="14.58333" rx="7.08333" cy="1746.882537" cx="967.368441"/>
  <ellipse id="svg_7" fill="#f2f2f2" transform="rotate(-59.76945877075195 -206.71124267578156,1171.1055908203123) " ry="14.58333" rx="7.08333" cy="1910.710441" cx="875.275247"/>
  <path id="svg_15" fill="#ffc1c7" d="m101.191403,192.590223s-45.825,7.24058 -40.19318,-1.89644s35.61959,-18.26615 41.1194,-16.35955s-0.92622,18.25599 -0.92622,18.25599z"/>
  <path id="svg_16" opacity="0.1" d="m101.191403,192.590223s-45.825,7.24058 -40.19318,-1.89644s35.61959,-18.26615 41.1194,-16.35955s-0.92622,18.25599 -0.92622,18.25599z"/>
  <path id="svg_17" fill="#009ad6" d="m153.744973,90.416103s-29.60182,7.942 -15.88391,33.2118c0,0 22.38187,44.04174 12.99593,46.92972s-52.70569,1.444 -52.70569,1.444s-10.10793,24.54785 -5.054,25.26985s85.91747,17.32789 94.58142,1.444s0,-84.47349 0,-84.47349s-12.27388,-33.93379 -33.93375,-23.82588z"/>
  <path id="svg_18" opacity="0.1" d="m153.744973,90.416103s-29.60182,7.942 -15.88391,33.2118c0,0 22.38187,44.04174 12.99593,46.92972s-52.70569,1.444 -52.70569,1.444s-10.10793,24.54785 -5.054,25.26985s85.91747,17.32789 94.58142,1.444s0,-84.47349 0,-84.47349s-12.27388,-33.93379 -33.93375,-23.82588z"/>
  <path id="svg_19" fill="#3f3d56" d="m237.496463,465.853853s12.99592,31.04581 5.776,36.82178s-5.776,16.6059 -0.722,16.6059s16.6059,-10.10794 23.10386,-22.38187c4.84056,-9.14328 12.88638,-27.50167 16.67586,-36.272a4.75347,4.75347 0 0 0 -2.97795,-6.43217l-20.91787,-6.39157l-20.9379,18.04993z"/>
  <path id="svg_20" fill="#3f3d56" d="m100.317293,503.397623s-27.43583,22.38187 -41.87574,21.65987s-16.6059,14.43991 0,16.6059s66.42359,2.888 70.75557,0s2.888,-33.2118 0,-33.93379s-28.87983,-4.33198 -28.87983,-4.33198z"/>
  <path id="svg_21" fill="#2f2e41" d="m193.454733,273.081023s0,22.38186 -11.55193,31.76781c0,0 -13.71792,70.03357 -1.444,74.36555s67.86758,41.87574 72.92155,60.64763l12.27393,9.38594s-22.38186,22.38187 -26.71384,22.38187s-46.92971,-58.48165 -85.19548,-69.31158c0,0 -23.82586,-5.776 -23.10386,-36.82178s28.87982,-113.35331 28.87982,-113.35331l32.48981,0l1.444,20.93787z"/>
  <path id="svg_22" opacity="0.1" d="m193.454733,273.081023s0,22.38186 -11.55193,31.76781c0,0 -13.71792,70.03357 -1.444,74.36555s67.86758,41.87574 72.92155,60.64763l12.27393,9.38594s-22.38186,22.38187 -26.71384,22.38187s-46.92971,-58.48165 -85.19548,-69.31158c0,0 -23.82586,-5.776 -23.10386,-36.82178s28.87982,-113.35331 28.87982,-113.35331l32.48981,0l1.444,20.93787z"/>
  <path id="svg_23" fill="#2f2e41" d="m118.367183,257.919103s-21.65987,67.86759 -18.04989,94.58143c0,0 -8.66395,25.26984 -2.166,52.70568s-0.722,98.1914 -2.166,99.63539s15.8839,16.6059 34.65579,4.332c0,0 0.722,-17.3279 4.332,-20.93788s3.61,-79.41951 0,-90.24945s38.98777,-89.52746 38.98777,-89.52746s23.10386,-20.93787 14.43991,-31.7678s0.722,-32.48981 0.722,-32.48981l-65.7016,4.332l-5.05398,9.3859z"/>
  <circle id="svg_24" fill="#ffc1c7" r="28.879831" cy="63.70229" cx="108.25924"/>
  <path id="svg_25" fill="#ffc1c7" d="m127.031133,50.706373s23.10386,26.71383 28.87979,27.43583s-18.77188,31.76781 -18.77188,31.76781s-13.71792,-23.10386 -23.10386,-25.26985s12.99595,-33.93379 12.99595,-33.93379z"/>
  <path id="svg_26" fill="#3f3d56" d="m160.242923,77.420203l-3.61,-5.054s-24.87578,22.17617 -25.79481,28.055a12.73562,12.73562 0 0 0 1.96895,9.48879l14.43992,-6.498l7.21994,-14.43989l5.776,-11.5519z"/>
  <path id="svg_27" fill="#3f3d56" d="m116.923193,256.475103s-5.776,17.32789 -1.444,16.6059s4.332,-10.10794 9.38594,-10.10794s7.942,-7.942 7.942,-7.942l-15.88394,1.44404z"/>
  <path id="svg_28" fill="#3f3d56" d="m153.744973,257.919103s16.6059,36.09978 37.54377,32.4898l4.08858,-1.75225a7.87051,7.87051 0 0 0 4.55678,-9.07186c-1.995,-8.31546 -5.66252,-21.66569 -8.64536,-21.66569l-37.54377,0z"/>
  <path id="svg_29" fill="#2f2e41" d="m79.441533,65.514913s2.82587,-9.03258 12.21181,-5.4226s17.3279,11.55193 19.49389,5.776s7.70886,-11.08952 11.43538,-6.62775s20.69342,12.76472 19.97143,8.43274s9.02494,-29.96282 -9.74695,-39.34876s-28.87982,-16.6059 -38.26576,-9.38594s-32.48981,20.93787 -28.87983,29.60182s2.166,12.99592 7.942,15.16191s5.83803,1.81258 5.83803,1.81258z"/>
  <path id="svg_30" fill="#009ad6" d="m163.852923,81.752183s-0.722,-6.498 -7.22,-5.054s-23.82586,30.32381 -23.82586,30.32381a204.24341,204.24341 0 0 0 -6.498,28.15783c-2.888,17.3279 -8.66394,80.86351 -14.43991,91.69345s5.054,36.09978 5.054,36.09978s6.498,-7.22 27.43583,-2.888s48.37371,8.66394 50.5397,6.498s-2.166,-7.942 3.61,-15.16191s13.71791,-143.67713 -15.16191,-158.839c0.00002,-0.00004 -13.71785,-10.82996 -19.49385,-10.82996z"/>
  <path id="svg_31" opacity="0.1" d="m156.632923,103.412103s-29.60182,7.942 -15.8839,33.21179c0,0 22.38186,44.04174 12.99592,46.92972s-52.70568,1.444 -52.70568,1.444s-4.693,15.52291 0.361,16.2449s80.50252,26.35284 89.16646,10.46894s0,-84.47349 0,-84.47349s-12.2739,-33.93386 -33.9338,-23.82586z"/>
  <path id="svg_32" fill="#2f2e41" d="m30.308163,181.615443l47.98714,26.35866a2.28533,2.28533 0 0 0 3.36012,-0.9912l11.75542,-24.5717a3.0672,3.0672 0 0 0 -1.57216,-3.6833l-39.84138,-20.536a2.32618,2.32618 0 0 0 -3.04849,0.58278l-19.90118,18.749a2.95539,2.95539 0 0 0 1.26053,4.09176z"/>
  <polygon id="svg_33" fill="#3f3d56" points="33.510009765625,177.9849853515625 78.49798583984375,203.69900512695312 90.468994140625,182.12200927734375 51.8759765625,161.13499450683594 33.510009765625,177.9849853515625 "/>
  <ellipse id="svg_34" fill="#f2f2f2" transform="rotate(-39.84151840209961 -743.982666015625,336.13690185546875) " ry="0.66226" rx="0.56465" cy="731.294342" cx="-11.378241"/>
  <ellipse id="svg_35" fill="#f2f2f2" transform="rotate(-39.84151840209961 -762.0032958984376,330.5610351562501) " ry="0.4415" rx="0.37643" cy="747.793095" cx="-46.102025"/>
  <path id="svg_36" fill="#ffc1c7" d="m101.861543,203.531433s-46.27992,3.24414 -39.87786,-5.37073s37.06788,-15.11223 42.38188,-12.73642s-2.50402,18.10715 -2.50402,18.10715z"/>
  <path id="svg_37" fill="#009ad6" d="m156.632923,99.080103s-29.60182,7.94195 -15.8839,33.2118c0,0 22.38186,44.04173 12.99592,46.92972s-52.70568,1.444 -52.70568,1.444s-10.10794,24.54785 -5.054,25.26984s85.91748,17.3279 94.58142,1.444s0,-84.47349 0,-84.47349s-12.27386,-33.93387 -33.93376,-23.82587z"/>
 </g>
</svg>